HIERARCHY
ROOT Root
{
  OFFSET 0.0 0.0 0.0
  CHANNELS 6 Xposition Yposition Zposition Zrotation Yrotation Xrotation
  JOINT Hips
  {
    OFFSET 0.0 100.0 0.0
    CHANNELS 6 Xposition Yposition Zposition Zrotation Yrotation Xrotation
    JOINT Spine1
    {
      OFFSET 5.003913 -0.037094 -0.013727
      CHANNELS 3 Zrotation Yrotation Xrotation
      JOINT Spine2
      {
        OFFSET 7.125363 -1e-06 0.0
        CHANNELS 3 Zrotation Yrotation Xrotation
        JOINT Chest
        {
          OFFSET 7.594027 1e-06 0.0
          CHANNELS 3 Zrotation Yrotation Xrotation
          JOINT Neck1
          {
            OFFSET 26.313086 -0.460272 -0.181672
            CHANNELS 3 Zrotation Yrotation Xrotation
            JOINT Neck2
            {
              OFFSET 8.045911 0.0 0.0
              CHANNELS 3 Zrotation Yrotation Xrotation
              JOINT Head
              {
                OFFSET 6.432774 0.0 0.0
                CHANNELS 3 Zrotation Yrotation Xrotation
                JOINT HeadEnd
                {
                  OFFSET 16.169773 0.06451 0.00362
                  CHANNELS 3 Zrotation Yrotation Xrotation
                }
                JOINT Jaw
                {
                  OFFSET 0.108741 3.12938 0.002639
                  CHANNELS 3 Zrotation Yrotation Xrotation
                }
                JOINT LeftEye
                {
                  OFFSET 4.45173 8.166359 3.206392
                  CHANNELS 3 Zrotation Yrotation Xrotation
                }
                JOINT RightEye
                {
                  OFFSET 4.436895 8.135758 -3.222429
                  CHANNELS 3 Zrotation Yrotation Xrotation
                }
              }
            }
          }
          JOINT LeftShoulder
          {
            OFFSET 23.218927 5.195579 1.621656
            CHANNELS 3 Zrotation Yrotation Xrotation
            JOINT LeftArm
            {
              OFFSET 15.902118 2e-06 -2e-06
              CHANNELS 3 Zrotation Yrotation Xrotation
              JOINT LeftForeArm
              {
                OFFSET 28.739307 0.0 -1e-06
                CHANNELS 3 Zrotation Yrotation Xrotation
                JOINT LeftHand
                {
                  OFFSET 27.093981 -4e-06 0.0
                  CHANNELS 3 Zrotation Yrotation Xrotation
                  JOINT LeftHandThumb1
                  {
                    OFFSET 2.276781 3.380274 0.83384
                    CHANNELS 3 Zrotation Yrotation Xrotation
                    JOINT LeftHandThumb2
                    {
                      OFFSET 4.705309 -1e-06 -1e-06
                      CHANNELS 3 Zrotation Yrotation Xrotation
                      JOINT LeftHandThumb3
                      {
                        OFFSET 2.798515 0.0 3e-06
                        CHANNELS 3 Zrotation Yrotation Xrotation
                        JOINT LeftHandThumbEnd
                        {
                          OFFSET 3.180793 4e-06 -4e-06
                          CHANNELS 3 Zrotation Yrotation Xrotation
                        }
                      }
                    }
                  }
                  JOINT LeftHandIndex1
                  {
                    OFFSET 3.247786 2.352677 0.137192
                    CHANNELS 3 Zrotation Yrotation Xrotation
                    JOINT LeftHandIndex2
                    {
                      OFFSET 6.367095 1e-06 0.0
                      CHANNELS 3 Zrotation Yrotation Xrotation
                      JOINT LeftHandIndex3
                      {
                        OFFSET 3.662364 0.0 0.0
                        CHANNELS 3 Zrotation Yrotation Xrotation
                        JOINT LeftHandIndex4
                        {
                          OFFSET 2.329242 4e-06 -4e-06
                          CHANNELS 3 Zrotation Yrotation Xrotation
                          JOINT LeftHandIndexEnd
                          {
                            OFFSET 2.767823 1e-06 0.0
                            CHANNELS 3 Zrotation Yrotation Xrotation
                          }
                        }
                      }
                    }
                  }
                  JOINT LeftHandMiddle1
                  {
                    OFFSET 3.163612 0.945023 -0.406112
                    CHANNELS 3 Zrotation Yrotation Xrotation
                    JOINT LeftHandMiddle2
                    {
                      OFFSET 6.276789 3e-06 0.0
                      CHANNELS 3 Zrotation Yrotation Xrotation
                      JOINT LeftHandMiddle3
                      {
                        OFFSET 4.35652 -1e-06 4e-06
                        CHANNELS 3 Zrotation Yrotation Xrotation
                        JOINT LeftHandMiddle4
                        {
                          OFFSET 2.996877 0.0 8e-06
                          CHANNELS 3 Zrotation Yrotation Xrotation
                          JOINT LeftHandMiddleEnd
                          {
                            OFFSET 2.323256 3e-06 -4e-06
                            CHANNELS 3 Zrotation Yrotation Xrotation
                          }
                        }
                      }
                    }
                  }
                  JOINT LeftHandRing1
                  {
                    OFFSET 2.882606 -0.309162 0.107445
                    CHANNELS 3 Zrotation Yrotation Xrotation
                    JOINT LeftHandRing2
                    {
                      OFFSET 6.033198 0.0 4e-06
                      CHANNELS 3 Zrotation Yrotation Xrotation
                      JOINT LeftHandRing3
                      {
                        OFFSET 4.350578 3e-06 0.0
                        CHANNELS 3 Zrotation Yrotation Xrotation
                        JOINT LeftHandRing4
                        {
                          OFFSET 2.651321 2e-06 -7e-06
                          CHANNELS 3 Zrotation Yrotation Xrotation
                          JOINT LeftHandRingEnd
                          {
                            OFFSET 1.937663 1e-06 -4e-06
                            CHANNELS 3 Zrotation Yrotation Xrotation
                          }
                        }
                      }
                    }
                  }
                  JOINT LeftHandPinky1
                  {
                    OFFSET 2.865315 -1.525436 0.575687
                    CHANNELS 3 Zrotation Yrotation Xrotation
                    JOINT LeftHandPinky2
                    {
                      OFFSET 5.54936 1e-06 -8e-06
                      CHANNELS 3 Zrotation Yrotation Xrotation
                      JOINT LeftHandPinky3
                      {
                        OFFSET 3.070974 0.0 -4e-06
                        CHANNELS 3 Zrotation Yrotation Xrotation
                        JOINT LeftHandPinky4
                        {
                          OFFSET 1.549672 1e-06 0.0
                          CHANNELS 3 Zrotation Yrotation Xrotation
                          JOINT LeftHandPinkyEnd
                          {
                            OFFSET 1.952123 0.0 0.0
                            CHANNELS 3 Zrotation Yrotation Xrotation
                          }
                        }
                      }
                    }
                  }
                }
              }
            }
          }
          JOINT RightShoulder
          {
            OFFSET 23.161716 5.296122 -1.380114
            CHANNELS 3 Zrotation Yrotation Xrotation
            JOINT RightArm
            {
              OFFSET -16.027195 -2e-06 1.1e-05
              CHANNELS 3 Zrotation Yrotation Xrotation
              JOINT RightForeArm
              {
                OFFSET -28.736639 4e-06 2e-06
                CHANNELS 3 Zrotation Yrotation Xrotation
                JOINT RightHand
                {
                  OFFSET -27.133619 6e-06 0.0
                  CHANNELS 3 Zrotation Yrotation Xrotation
                  JOINT RightHandThumb1
                  {
                    OFFSET -2.274328 -3.351035 -0.83067
                    CHANNELS 3 Zrotation Yrotation Xrotation
                    JOINT RightHandThumb2
                    {
                      OFFSET -4.703594 -3e-06 2e-06
                      CHANNELS 3 Zrotation Yrotation Xrotation
                      JOINT RightHandThumb3
                      {
                        OFFSET -2.794935 -4e-06 -3e-06
                        CHANNELS 3 Zrotation Yrotation Xrotation
                        JOINT RightHandThumbEnd
                        {
                          OFFSET -3.183852 4e-06 1e-06
                          CHANNELS 3 Zrotation Yrotation Xrotation
                        }
                      }
                    }
                  }
                  JOINT RightHandIndex1
                  {
                    OFFSET -3.253496 -2.33755 -0.127667
                    CHANNELS 3 Zrotation Yrotation Xrotation
                    JOINT RightHandIndex2
                    {
                      OFFSET -6.344434 0.0 0.0
                      CHANNELS 3 Zrotation Yrotation Xrotation
                      JOINT RightHandIndex3
                      {
                        OFFSET -3.654871 0.0 -8e-06
                        CHANNELS 3 Zrotation Yrotation Xrotation
                        JOINT RightHandIndex4
                        {
                          OFFSET -2.327586 -1e-06 0.0
                          CHANNELS 3 Zrotation Yrotation Xrotation
                          JOINT RightHandIndexEnd
                          {
                            OFFSET -2.770001 3e-06 8e-06
                            CHANNELS 3 Zrotation Yrotation Xrotation
                          }
                        }
                      }
                    }
                  }
                  JOINT RightHandMiddle1
                  {
                    OFFSET -3.168223 -0.944764 0.411762
                    CHANNELS 3 Zrotation Yrotation Xrotation
                    JOINT RightHandMiddle2
                    {
                      OFFSET -6.266691 -1e-06 -4e-06
                      CHANNELS 3 Zrotation Yrotation Xrotation
                      JOINT RightHandMiddle3
                      {
                        OFFSET -4.348901 0.0 0.0
                        CHANNELS 3 Zrotation Yrotation Xrotation
                        JOINT RightHandMiddle4
                        {
                          OFFSET -3.00024 2e-06 -4e-06
                          CHANNELS 3 Zrotation Yrotation Xrotation
                          JOINT RightHandMiddleEnd
                          {
                            OFFSET -2.321477 -4e-06 -4e-06
                            CHANNELS 3 Zrotation Yrotation Xrotation
                          }
                        }
                      }
                    }
                  }
                  JOINT RightHandRing1
                  {
                    OFFSET -2.885654 0.293261 -0.119232
                    CHANNELS 3 Zrotation Yrotation Xrotation
                    JOINT RightHandRing2
                    {
                      OFFSET -6.032835 -1e-06 -4e-06
                      CHANNELS 3 Zrotation Yrotation Xrotation
                      JOINT RightHandRing3
                      {
                        OFFSET -4.33881 0.0 -4e-06
                        CHANNELS 3 Zrotation Yrotation Xrotation
                        JOINT RightHandRing4
                        {
                          OFFSET -2.654903 -4e-06 -4e-06
                          CHANNELS 3 Zrotation Yrotation Xrotation
                          JOINT RightHandRingEnd
                          {
                            OFFSET -1.935122 0.0 4e-06
                            CHANNELS 3 Zrotation Yrotation Xrotation
                          }
                        }
                      }
                    }
                  }
                  JOINT RightHandPinky1
                  {
                    OFFSET -2.866241 1.503904 -0.60527
                    CHANNELS 3 Zrotation Yrotation Xrotation
                    JOINT RightHandPinky2
                    {
                      OFFSET -5.553177 -2e-06 0.0
                      CHANNELS 3 Zrotation Yrotation Xrotation
                      JOINT RightHandPinky3
                      {
                        OFFSET -3.062664 -1e-06 -4e-06
                        CHANNELS 3 Zrotation Yrotation Xrotation
                        JOINT RightHandPinky4
                        {
                          OFFSET -1.546529 2e-06 4e-06
                          CHANNELS 3 Zrotation Yrotation Xrotation
                          JOINT RightHandPinkyEnd
                          {
                            OFFSET -1.952341 0.0 -4e-06
                            CHANNELS 3 Zrotation Yrotation Xrotation
                          }
                        }
                      }
                    }
                  }
                }
              }
            }
          }
        }
      }
    }
    JOINT LeftLeg
    {
      OFFSET -8.443107 2.567604 10.043214
      CHANNELS 3 Zrotation Yrotation Xrotation
      JOINT LeftShin
      {
        OFFSET 43.229198 1e-06 -1e-06
        CHANNELS 3 Zrotation Yrotation Xrotation
        JOINT LeftFoot
        {
          OFFSET 42.298611 1e-06 1e-06
          CHANNELS 3 Zrotation Yrotation Xrotation
          JOINT LeftToeBase
          {
            OFFSET 14.165858 1e-06 0.0
            CHANNELS 3 Zrotation Yrotation Xrotation
            JOINT LeftToeEnd
            {
              OFFSET 6.7141 -0.234461 0.0
              CHANNELS 3 Zrotation Yrotation Xrotation
            }
          }
        }
      }
    }
    JOINT RightLeg
    {
      OFFSET -8.303923 2.592729 -10.047278
      CHANNELS 3 Zrotation Yrotation Xrotation
      JOINT RightShin
      {
        OFFSET -43.369682 0.0 1e-06
        CHANNELS 3 Zrotation Yrotation Xrotation
        JOINT RightFoot
        {
          OFFSET -42.260784 4e-06 2e-06
          CHANNELS 3 Zrotation Yrotation Xrotation
          JOINT RightToeBase
          {
            OFFSET -14.222245 -2e-06 -1e-06
            CHANNELS 3 Zrotation Yrotation Xrotation
            JOINT RightToeEnd
            {
              OFFSET -6.660062 0.232574 -2e-06
              CHANNELS 3 Zrotation Yrotation Xrotation
            }
          }
        }
      }
    }
  }
}
MOTION
Frames: 4
Frame Time: 0.03333333333333333
0.0 0.0 0.0 0.0 -0.0 0.0 0.879443 99.646568 -0.885119 89.390327 3.172528 89.98629 -2.372486 -1.034407 0.08068 -11.467873 -0.857658 -0.456553 20.314999 -0.880771 -2.492169 18.451591 4.517324 2.353915 -2.561069 -0.81115 0.018202 -33.322758 2.696465 -2.266151 6e-06 0.0 0.0 0.000407 0.01754 0.059528 0.111316 -0.003912 0.072667 0.115158 0.041451 0.048405 -150.801331 -64.100319 166.787766 28.191774 -41.993362 14.303923 30.018761 0.407648 0.136964 -4.434361 -8.939794 15.977812 17.636621 -26.322729 52.411194 -19.466658 -14.395594 29.410381 -0.0 -8.77482 -2e-06 16.432932 -18.082479 5.917249 -0.609777 -1.795654 -3.889327 -4.807088 -11.046809 -2.93785 1e-06 -20.976015 -3e-06 -5.019974 -25.033556 -4.031876 6e-06 2e-06 1e-06 -10.634533 -5.68697 -3.565585 10.573271 -17.922947 -3.113901 2e-06 -13.821206 -0.0 -0.501778 -31.181498 -4.027015 -10.773165 -59.699802 6.511379 -13.982712 -7.150198 -2.875043 13.772725 -8.401489 -3.21824 0.347729 -34.211544 0.771654 -0.96303 -17.733366 2.621017 -1e-06 -1e-06 0.0 -17.346418 -20.095215 -4.201777 21.757555 -1.638372 3.866423 1e-06 -6.338822 2e-06 -1.69759 -22.591743 -6.194004 -2e-06 -0.0 -2e-06 41.381516 -71.556892 152.13562 35.115505 -56.825169 6.256674 32.233223 -0.320631 0.201778 -2.563545 -9.988823 24.049358 22.182112 -20.375887 49.933319 -16.701807 -16.743525 28.476522 -1e-06 -12.690601 -1e-06 16.142977 -17.822729 2.448232 -0.10592 -1.513857 -4.275881 -5.039041 -5.612871 -2.953559 3e-06 -11.020523 -1e-06 -6.1113 -15.89533 -3.840473 -1e-06 -1e-06 2e-06 -10.283369 -5.680287 -4.341841 11.02829 -11.302401 -2.372632 -1.38427 -14.238578 -6.320117 -0.625436 -26.924183 -3.827604 -4.576731 -49.935505 -3.823435 -13.708524 -7.363477 -3.720942 18.141146 -14.052738 -3.242671 5e-06 -18.787266 -1e-06 -0.42971 -8.456039 2.555504 0.0 1e-06 1e-06 -15.923536 -20.094482 -5.473586 30.41921 -7.190823 1.735926 3e-06 -8.162924 -1e-06 -1.861902 -22.861467 -6.167941 -0.0 -3e-06 -1e-06 -178.391052 -5.948728 -9.969467 14.804814 0.034513 0.147865 -81.879768 6.631967 -4.846995 -5.372956 1.345948 2.131258 -0.999999 0.0 -0.0 -0.00175 -2.560503 3.689108 14.933349 -0.044616 0.145565 -81.202873 4.277406 -4.397237 -5.118774 0.838235 1.725112 -1.000003 -0.0 -0.0 
0.0 0.0 0.0 0.0 -0.0 0.0 0.87013 99.665276 -0.879267 89.38121 3.15007 89.998734 -2.409392 -1.040727 0.066212 -11.460686 -0.834078 -0.374653 20.294537 -0.868513 -2.533563 18.429899 4.538984 2.340894 -2.548385 -0.80786 0.06781 -33.293228 2.676499 -2.227151 7e-06 -0.0 0.0 0.000793 0.015491 0.068059 0.129268 -0.005274 0.08677 0.133824 0.038653 0.05121 -150.800461 -64.084511 166.857086 28.246346 -41.989265 14.161315 30.000055 0.342636 0.10327 -4.450417 -9.00044 16.197887 17.636637 -26.322744 52.411213 -19.466665 -14.395598 29.410395 0.0 -8.774822 -2e-06 16.380451 -18.032665 5.929861 -0.609776 -1.795653 -3.889329 -4.80709 -11.046812 -2.93785 5e-06 -20.976021 -3e-06 -5.019969 -25.03356 -4.03188 7e-06 -0.0 0.0 -10.634535 -5.686971 -3.565586 10.573277 -17.922955 -3.113901 3e-06 -13.821214 2e-06 -0.501779 -31.181507 -4.027011 -10.715278 -59.598587 6.567378 -13.982718 -7.150198 -2.875043 13.772732 -8.401493 -3.218242 0.347736 -34.211559 0.771655 -0.96303 -17.733372 2.62102 -1e-06 0.0 0.0 -17.346422 -20.095221 -4.201784 21.757561 -1.638374 3.866429 2e-06 -6.338825 1e-06 -1.697588 -22.591749 -6.194007 1e-06 -2e-06 -1e-06 41.400166 -71.520721 152.151077 35.152557 -56.801476 6.212986 32.129436 -0.297823 0.186255 -2.586199 -10.050724 23.9443 22.182114 -20.375895 49.933319 -16.701811 -16.743528 28.476528 -4e-06 -12.690601 3e-06 16.087759 -17.817972 2.461366 -0.105919 -1.513855 -4.275881 -5.03904 -5.61287 -2.953557 5e-06 -11.020526 -2e-06 -6.111297 -15.895334 -3.84047 -0.0 -0.0 1e-06 -10.283372 -5.680286 -4.341835 11.028296 -11.302403 -2.372639 -1.384268 -14.238581 -6.320118 -0.625435 -26.924187 -3.827603 -4.629642 -49.968216 -3.770857 -13.708525 -7.363474 -3.720939 18.141151 -14.052739 -3.242676 7e-06 -18.78727 -1e-06 -0.42971 -8.456041 2.555503 1e-06 -1e-06 1e-06 -15.923536 -20.094482 -5.473585 30.419218 -7.190827 1.735922 4e-06 -8.162927 -2e-06 -1.861902 -22.861469 -6.167941 -1e-06 -3e-06 -3e-06 -178.327652 -5.950623 -9.972691 14.625752 0.036378 0.184502 -81.793022 6.639007 -4.894234 -5.400551 1.360988 2.135775 -0.999999 -0.0 0.0 0.064661 -2.534776 3.701984 14.731195 -0.064094 0.160632 -81.099152 4.234337 -4.373747 -5.159009 0.822598 1.724079 -1.000001 0.0 -0.0 
0.0 0.0 0.0 0.0 -0.0 0.0 0.854951 99.666039 -0.889477 89.383064 3.144517 89.98967 -2.435222 -1.046721 0.05979 -11.475582 -0.822889 -0.335976 20.329641 -0.870539 -2.5471 18.426489 4.575868 2.361549 -2.572001 -0.80225 0.068908 -33.221004 2.651113 -2.207274 6e-06 -0.0 0.0 -0.000993 0.012255 0.06402 0.12781 -0.009279 0.086476 0.134915 0.035973 0.043024 -150.845337 -64.093201 166.935944 28.236008 -41.989281 14.063656 30.029972 0.284597 0.075612 -4.51478 -9.062738 16.31263 17.636623 -26.322721 52.411182 -19.46666 -14.395596 29.410381 -1e-06 -8.774821 -3e-06 16.392584 -18.024172 5.934729 -0.609776 -1.795654 -3.889327 -4.807086 -11.046807 -2.937849 6e-06 -20.976013 -3e-06 -5.019969 -25.033552 -4.031878 8e-06 -2e-06 -0.0 -10.63453 -5.686968 -3.565588 10.573272 -17.922947 -3.1139 4e-06 -13.821205 1e-06 -0.501777 -31.181488 -4.027011 -10.735952 -59.545288 6.608294 -13.98271 -7.150196 -2.875043 13.772727 -8.401491 -3.218243 0.347736 -34.21154 0.771652 -0.963028 -17.733366 2.621018 -0.0 -1e-06 0.0 -17.346413 -20.095211 -4.201781 21.757555 -1.638375 3.866424 2e-06 -6.338822 1e-06 -1.697586 -22.591738 -6.194006 -0.0 -2e-06 -2e-06 41.40871 -71.495506 152.160034 35.163593 -56.77861 6.138082 32.063892 -0.293929 0.167703 -2.621036 -10.05232 24.050808 22.182116 -20.375895 49.933315 -16.701813 -16.743528 28.476524 -3e-06 -12.690601 0.0 16.07214 -17.794104 2.474803 -0.105919 -1.513856 -4.275877 -5.03904 -5.612868 -2.953556 5e-06 -11.020521 1e-06 -6.111295 -15.895328 -3.84047 -0.0 -1e-06 2e-06 -10.283369 -5.680287 -4.341837 11.028294 -11.302404 -2.372635 -1.384268 -14.238579 -6.320119 -0.625438 -26.924185 -3.827599 -4.66918 -49.981133 -3.741042 -13.708524 -7.363473 -3.72094 18.141146 -14.052739 -3.242675 8e-06 -18.787268 -1e-06 -0.42971 -8.456039 2.555504 -0.0 -0.0 1e-06 -15.923534 -20.094479 -5.473582 30.419207 -7.190827 1.735924 3e-06 -8.162922 -1e-06 -1.861898 -22.861467 -6.167938 -1e-06 -4e-06 -1e-06 -178.334106 -5.95256 -9.952343 14.614321 0.033084 0.202757 -81.783852 6.63848 -4.918412 -5.38206 1.359975 2.136378 -0.999998 -0.0 -0.0 0.040412 -2.525013 3.71907 14.750871 -0.071713 0.167649 -81.097343 4.191466 -4.382079 -5.132755 0.813308 1.723607 -1.000001 0.0 -0.0 
0.0 0.0 0.0 0.0 -0.0 0.0 0.832164 99.66143 -0.906963 89.388687 3.160683 89.968834 -2.440282 -1.053867 0.061978 -11.492023 -0.818454 -0.337236 20.366867 -0.883112 -2.526299 18.468563 4.592402 2.376611 -2.60105 -0.787069 0.051208 -33.186787 2.634562 -2.187429 6e-06 -1e-06 1e-06 -0.003846 0.010091 0.059717 0.116581 -0.011383 0.083886 0.124315 0.033668 0.036579 -150.89769 -64.112854 167.012482 28.23856 -41.991158 13.992078 30.053785 0.249063 0.072329 -4.545333 -9.082749 16.41605 17.636633 -26.322731 52.41119 -19.466661 -14.395597 29.410389 -1e-06 -8.774821 -2e-06 16.408546 -18.001448 5.91987 -0.609776 -1.795653 -3.889329 -4.807087 -11.046811 -2.937847 6e-06 -20.976021 0.0 -5.019974 -25.033558 -4.031875 6e-06 2e-06 -0.0 -10.634533 -5.686971 -3.565585 10.573275 -17.922955 -3.113902 4e-06 -13.821211 0.0 -0.501776 -31.181505 -4.027012 -10.743506 -59.507233 6.613236 -13.982714 -7.150196 -2.875042 13.772731 -8.401493 -3.218243 0.347739 -34.211552 0.771656 -0.963028 -17.73337 2.621021 -0.0 -1e-06 1e-06 -17.346415 -20.095215 -4.201779 21.757557 -1.638375 3.866426 1e-06 -6.338824 2e-06 -1.697589 -22.591745 -6.194005 -3e-06 -1e-06 -2e-06 41.455006 -71.476074 152.135361 35.184288 -56.755604 6.083913 32.028069 -0.270503 0.164732 -2.660301 -10.044528 24.213398 22.18211 -20.375891 49.933319 -16.701817 -16.74353 28.47653 -3e-06 -12.690601 0.0 16.063292 -17.766926 2.491071 -0.105919 -1.513856 -4.275879 -5.039041 -5.612872 -2.953558 5e-06 -11.020524 0.0 -6.111297 -15.89533 -3.840469 -0.0 1e-06 1e-06 -10.283368 -5.680288 -4.341838 11.028294 -11.302404 -2.372633 -1.384269 -14.238581 -6.320117 -0.625439 -26.924187 -3.827601 -4.694434 -49.957207 -3.714883 -13.708524 -7.363476 -3.720937 18.14115 -14.052739 -3.242677 7e-06 -18.78727 -1e-06 -0.429712 -8.456041 2.555504 1e-06 -1e-06 1e-06 -15.923534 -20.094481 -5.473585 30.41921 -7.190827 1.735925 4e-06 -8.162924 -2e-06 -1.861903 -22.861465 -6.167938 -1e-06 -4e-06 -0.0 -178.335739 -5.958051 -9.942399 14.637174 0.028526 0.211135 -81.788559 6.627705 -4.927958 -5.363484 1.354896 2.134652 -0.999998 -0.0 0.0 0.009523 -2.526659 3.73024 14.833959 -0.072508 0.165456 -81.122681 4.164146 -4.401625 -5.088058 0.799806 1.720791 -1.000002 1e-06 0.0 
